<?xml version="1.0" standalone="no"?>
<!DOCTYPE svg PUBLIC "-//W3C//DTD SVG 20010904//EN"
 "http://www.w3.org/TR/2001/REC-SVG-20010904/DTD/svg10.dtd">
<svg version="1.0" xmlns="http://www.w3.org/2000/svg"
 width="677.000000pt" height="1280.000000pt" viewBox="0 0 677.000000 1280.000000"
 preserveAspectRatio="xMidYMid meet">
<g transform="translate(0.000000,1280.000000) scale(0.100000,-0.100000)"
fill="#000000" stroke="none">
<path d="M2240 12790 c-8 -5 -52 -25 -96 -43 -112 -47 -268 -141 -327 -196
-114 -106 -169 -251 -247 -650 -21 -108 -46 -216 -54 -240 -27 -74 -22 -97 25
-122 23 -11 67 -23 98 -26 68 -7 81 -17 115 -92 28 -63 40 -77 70 -82 14 -3
24 -21 37 -68 9 -36 36 -102 60 -148 l42 -84 -6 -102 c-5 -101 -6 -102 -39
-130 -18 -16 -62 -44 -98 -64 -36 -20 -89 -51 -119 -70 -53 -35 -56 -35 -175
-39 -67 -1 -138 -3 -158 -3 -24 0 -49 -9 -68 -23 -17 -13 -86 -41 -152 -63
-146 -48 -160 -62 -106 -107 21 -16 38 -36 38 -43 0 -7 -33 -35 -72 -61 -87
-57 -230 -199 -390 -386 -65 -75 -122 -139 -128 -143 -20 -12 -113 -159 -146
-230 -61 -132 -121 -308 -159 -465 -20 -85 -48 -200 -61 -255 -13 -55 -24
-115 -24 -133 0 -23 -10 -44 -38 -75 -62 -69 -65 -81 -59 -214 15 -292 23
-351 61 -427 47 -94 111 -165 179 -199 80 -39 144 -43 254 -17 51 12 97 19
102 16 5 -4 19 -37 32 -74 12 -37 32 -88 45 -113 37 -73 184 -294 197 -295 7
-1 18 -2 24 -3 7 0 26 -27 42 -59 47 -92 61 -105 122 -112 l54 -5 15 -57 14
-58 96 0 c106 0 140 -6 140 -25 0 -7 -43 -52 -95 -100 -56 -52 -116 -119 -145
-162 l-50 -75 0 -216 c0 -275 -24 -639 -49 -762 -31 -152 -44 -285 -37 -374 7
-94 29 -178 52 -197 33 -27 65 -115 113 -306 27 -109 55 -226 62 -261 21 -112
-5 -294 -71 -492 -24 -73 -30 -107 -30 -177 0 -61 -11 -140 -36 -263 -33 -159
-36 -184 -30 -281 3 -59 11 -133 17 -165 7 -33 12 -140 13 -239 1 -161 4 -186
24 -235 15 -39 22 -76 22 -125 0 -39 14 -178 30 -310 17 -132 30 -273 30 -315
0 -129 19 -302 36 -328 9 -13 30 -30 49 -37 19 -8 35 -24 39 -37 3 -13 8 -95
12 -183 13 -330 -17 -402 -324 -774 -62 -76 -82 -118 -82 -178 0 -18 -11 -53
-25 -79 -30 -56 -31 -104 -6 -160 40 -88 99 -109 306 -108 218 1 308 29 402
126 48 49 75 105 66 136 -8 31 14 52 54 52 55 0 192 80 262 154 33 34 35 38
35 118 1 59 -4 96 -17 127 -41 99 -26 785 17 829 4 3 55 22 114 42 100 34 107
38 104 61 -5 35 -110 434 -132 499 -49 147 -52 356 -6 495 14 44 26 99 26 122
0 75 -38 224 -91 361 -42 106 -39 148 15 236 97 154 119 237 118 435 -1 114 2
139 18 172 13 24 28 94 40 181 28 207 29 208 73 258 55 63 72 105 101 260 18
97 26 185 30 313 3 98 9 184 14 192 12 22 122 85 148 85 42 0 80 -48 99 -125
9 -38 34 -108 56 -155 54 -119 147 -472 161 -618 10 -102 10 -116 -6 -143 -17
-28 -16 -33 24 -186 22 -87 43 -166 46 -176 3 -9 21 -24 39 -31 30 -13 34 -20
40 -63 10 -75 35 -171 65 -253 37 -101 31 -137 -60 -325 l-72 -150 -5 -105
c-2 -58 0 -172 7 -255 6 -82 15 -231 19 -330 9 -173 20 -273 43 -362 8 -35 7
-53 -12 -110 -13 -37 -36 -94 -53 -126 -23 -45 -28 -66 -24 -94 8 -50 50 -108
103 -146 l44 -31 -6 -250 c-3 -138 -2 -360 4 -493 9 -226 11 -244 33 -284 29
-51 119 -105 192 -115 26 -4 48 -12 49 -18 0 -6 2 -61 2 -123 1 -109 2 -112
30 -142 37 -39 103 -66 196 -81 41 -6 97 -16 123 -21 75 -14 144 -11 252 12
105 22 188 57 198 84 4 8 -5 52 -19 97 -17 53 -29 119 -33 183 -5 84 -11 108
-33 146 -33 55 -122 176 -207 279 -34 41 -76 104 -94 140 l-32 65 3 275 3 275
30 25 29 25 0 116 c0 99 6 146 44 325 62 294 72 336 108 449 29 94 31 109 31
245 -1 128 -5 159 -32 263 -29 111 -31 129 -30 290 0 95 5 199 10 232 28 175
18 590 -16 641 -11 17 -20 84 -32 240 l-17 217 22 16 c81 57 77 47 80 188 2
70 -4 261 -13 423 -31 562 -30 966 2 1333 4 51 1 67 -26 122 -17 34 -61 95
-98 135 -98 106 -112 166 -67 292 30 85 44 103 72 94 36 -12 192 -115 243
-160 67 -60 89 -63 174 -20 84 43 264 162 357 236 70 56 88 81 88 126 0 52 14
58 57 25 21 -17 176 -138 344 -271 l307 -240 48 2 c27 2 61 6 77 10 23 7 36 2
82 -34 82 -63 82 -64 50 -111 -26 -37 -27 -41 -12 -56 9 -9 24 -18 34 -19 10
-2 30 -6 45 -9 21 -6 27 -3 33 14 3 11 3 25 0 31 -3 5 1 10 9 10 8 0 100 -68
203 -152 103 -83 226 -181 273 -217 112 -88 160 -131 160 -145 0 -14 39 -50
63 -59 9 -3 17 -11 17 -17 0 -5 6 -10 13 -10 7 0 40 -22 74 -50 34 -27 66 -50
72 -50 10 0 81 79 81 89 0 3 -22 22 -48 41 -26 19 -67 55 -92 81 -25 25 -53
48 -63 52 -9 3 -17 11 -17 17 0 5 -11 10 -25 10 -16 0 -85 49 -217 156 -106
85 -248 199 -315 251 -95 74 -123 102 -123 120 0 14 39 71 104 152 126 156
131 164 110 185 -8 9 -25 18 -37 21 -19 5 -289 -45 -331 -61 -11 -4 -19 2 -25
19 -11 28 -69 81 -401 369 l-235 204 -2 64 c-1 36 -2 104 -2 151 -1 128 -25
194 -127 345 -80 119 -154 251 -154 274 0 5 19 19 41 31 l42 21 -6 91 c-6 88
-8 96 -81 244 -72 144 -82 159 -174 255 -74 77 -101 112 -106 138 -8 45 -142
272 -220 375 -94 123 -191 230 -254 278 -144 111 -281 191 -361 211 -66 17
-81 52 -81 188 0 99 -2 108 -22 123 -54 37 -260 75 -417 75 -43 0 -51 5 -136
81 -49 44 -104 87 -122 95 -25 11 -34 22 -39 49 -9 51 -1 89 45 198 22 53 52
138 65 189 14 50 28 93 31 96 3 3 14 -4 25 -16 45 -48 73 -17 94 102 8 49 20
92 25 96 6 3 37 2 68 -3 40 -6 67 -6 87 2 27 11 28 14 22 54 -3 23 -9 78 -12
122 -6 74 -71 329 -122 475 -52 150 -165 368 -224 435 -47 54 -157 102 -263
116 -49 6 -144 23 -210 37 -143 30 -195 35 -215 22z m1974 -4896 c47 -37 86
-71 86 -77 0 -6 -18 -6 -47 -1 -27 5 -74 8 -105 6 -55 -2 -58 -1 -58 22 0 53
13 116 25 116 7 0 51 -30 99 -66z m255 -201 c35 -30 36 -53 1 -53 -18 0 -55
41 -79 88 -12 23 -12 23 16 8 15 -8 43 -28 62 -43z m1479 -505 c17 -17 15 -43
-3 -58 -11 -9 -14 -22 -10 -41 7 -31 -15 -73 -47 -90 -16 -9 -29 -3 -71 29
-65 50 -107 90 -107 102 0 14 30 40 53 45 111 25 169 29 185 13z m-207 -160
c47 -36 67 -63 56 -74 -16 -16 -135 75 -123 95 11 17 21 14 67 -21z"/>
</g>
</svg>
